<?xml version="1.0" encoding="UTF-8" standalone="no"?>
<svg
   width="32"
   height="32"
   viewBox="0 0 16 16"
   version="1.1"
   id="svg4"
   sodipodi:docname="antiquis-ac-medii-aevi.svg"
   inkscape:version="1.1.1 (3bf5ae0d25, 2021-09-20)"
   xmlns:inkscape="http://www.inkscape.org/namespaces/inkscape"
   xmlns:sodipodi="http://sodipodi.sourceforge.net/DTD/sodipodi-0.dtd"
   xmlns="http://www.w3.org/2000/svg"
   xmlns:svg="http://www.w3.org/2000/svg"
   xmlns:rdf="http://www.w3.org/1999/02/22-rdf-syntax-ns#"
   xmlns:cc="http://creativecommons.org/ns#"
   xmlns:dc="http://purl.org/dc/elements/1.1/">
  <defs
     id="defs8" />
  <sodipodi:namedview
     id="namedview6"
     pagecolor="#ffffff"
     bordercolor="#666666"
     borderopacity="1.0"
     inkscape:pageshadow="2"
     inkscape:pageopacity="0.0"
     inkscape:pagecheckerboard="0"
     showgrid="false"
     inkscape:zoom="19.246563"
     inkscape:cx="17.639513"
     inkscape:cy="13.508905"
     inkscape:window-width="1920"
     inkscape:window-height="1051"
     inkscape:window-x="0"
     inkscape:window-y="0"
     inkscape:window-maximized="1"
     inkscape:current-layer="svg4" />
  <title
     id="title2">empty</title>
  <g
     aria-label="M"
     id="text10085"
     style="font-size:20px;line-height:1.25;fill:#917c6f;stroke:#483e37;stroke-width:0.152304;stroke-miterlimit:4;stroke-dasharray:none"
     transform="matrix(1.0086145,0,0,1.0086145,11.105524,16.923642)">
    <path
       d="m 3.1735961,-1.2131564 h -0.08 q -2.15999998,0 -2.15999998,-2.98 v -2.84 h -1.14 v 3.64 l 0.24,-0.22 0.48,0.54 -2.42000002,1.86 q -0.9,-1.02 -1.82,-1.02 -0.24,0 -0.54,0.08 -0.28,0.06 -0.64,0.18 0,-0.06 0.02,-0.16 0.04,-0.1 0.1,-0.2 h -0.02 q 0.46,-0.84 1.1,-1.28 v -3.42 h -1.12 v 3.5 q 0,0.32 -0.28,0.88 -0.72,1.38 -2.02,1.38 -0.2,0 -0.72,-0.16 -0.42,-0.14 -0.68,-0.14 v -0.04 q -0.8,-0.26 -1.02,-0.26 -0.7400001,0 -1.2000001,0.64 0,-1.14 0.58,-1.84 0.6000001,-0.72 1.6400001,-0.72 0.28,0 0.62,0.08 0.36,0.08 0.78,0.24 0.1,0.04 0.1,0.06 0.02,0 0.12,0.04 0.18,0.12 0.42,0.12 v -0.16 q 0.16,0.16 0.2,0.16 0.2,0 0.44,-0.2 0.26,-0.22 0.26,-0.44 v -8.4399996 l -0.42,0.24 -0.02,0.02 -0.06,0.04 v 0.02 q -0.06,0.06 -0.06,0.12 -0.06,0.06 -0.06,0.16 v 5.7999996 q 0,0.14 -0.04,0.3 -0.04,0.16 -0.14,0.36 -0.16,0.28 -0.42,0.52 -0.26,0.24 -0.58,0.42 -0.3,0.18 -0.66,0.3 -0.34,0.1 -0.66,0.1 h -0.12 v -0.02 h -0.18 l 0.2,-0.2 h 0.02 q 0.32,-0.32 0.32,-0.6 v -2.2 l -0.04,-0.04 -0.14,-0.08 h -0.02 l -0.04,-0.02 h -0.06 l -0.02,-0.02 q -0.36,0.04 -0.36,0.36 0.02,0.04 0.02,0.12 l 0.04,0.04 0.04,0.2 h -0.1 l -0.02,0.02 h -0.06 q -0.5,0 -0.8400001,-0.46 -0.26,-0.38 -0.26,-0.9 0,-0.76 0.7000001,-1.18 0.3,-0.18 0.4,-0.18 l 0.76,-0.04 v -1.9399996 q 0,-0.66 0.88,-1.14 l 4.8,-2.44 q 0.88,1.48 1.86000002,1.54 v -1.44 h 0.72 v 1.4 h 0.04 q 0.72,0 2.05999998,-1.52 0.78,0.88 1.48,1.24 h 0.06 q 0.14,0 0.26,-0.06 h 0.06 l 0.02,-0.02 q 0.08,0 0.26,-0.12 v 0.34 l -0.02,0.04 v 0.1 l -0.02,0.02 q -0.02,0.28 -0.26,0.6 -0.24,0.3 -0.52,0.42 v 7.9599996 q 0,0.28 0.2,0.52 0.2,0.22 0.48,0.28 l 0.2,-0.28 0.56,0.4 z m -4.11999998,-2.52 v -8.3399996 q -0.24000002,0.1 -0.46000002,0.1 -0.04,0.02 -0.12,0.02 h -0.02 v 8.0399996 q 0.1,0.02 0.2,0.06 0.1,0.02 0.2,0.06 0.02,0.02 0.1,0.02 l 0.02,0.02 q 0.02,0 0.02,0.02 0.02,0 0.06,0 z m -3.70000002,-9.0399996 -0.18,0.04 v 3.5799996 h 1.12 v -3.0599996 q -0.04,-0.04 -0.06,-0.04 -0.02,0 -0.04,-0.02 -0.08,-0.02 -0.14,-0.04 -0.04,-0.02 -0.08,-0.04 h 0.02 q -0.1,0 -0.46,-0.3 v 0.02 l -0.04,-0.02 q -0.04,-0.02 -0.08,-0.04 -0.02,-0.04 -0.06,-0.08 z m 4.44000002,0.38 v 3.2399996 h 1.14 v -2.9199996 q -0.56,-0.1 -0.9,-0.5 -0.12,0.16 -0.22,0.16 z"
       style="font-family:Ancient;-inkscape-font-specification:Ancient;fill:#917c6f;stroke:#483e37;stroke-width:0.152304;stroke-miterlimit:4;stroke-dasharray:none"
       id="path10893" />
  </g>
  <g
     aria-label="A"
     id="text5248"
     style="font-size:20px;line-height:1.25;fill:#ffcc00;stroke:#554400;stroke-width:0.1;stroke-miterlimit:4;stroke-dasharray:none"
     transform="matrix(1.2478456,0,0,1.2478456,-0.58827438,-0.22177086)">
    <path
       d="m 0.89660568,10.694116 q -0.18188981,0 -0.18188981,-0.181889 0,-0.223865 0.18188981,-0.223865 0.48970332,0 0.76953382,-0.167898 Q 1.9459696,9.9385742 2.169834,9.4488709 2.2817662,9.2250065 2.491639,8.6933286 2.7155034,8.1616507 2.9953339,7.4200999 3.2891559,6.6785492 3.610961,5.8390578 3.932766,4.9995664 4.2545711,4.1600749 4.5763761,3.3205837 4.8422151,2.607016 5.1220455,1.8794567 5.3039353,1.3617704 5.4998167,0.84408399 5.5697743,0.66219417 5.6397319,0.48030436 5.7236811,0.42433826 q 0.097941,-0.0559661 0.321805,-0.0559661 0.2238644,0 0.321805,0.0559661 0.097941,0.0559661 0.1678983,0.23785591 0.1119322,0.27983049 0.3497881,0.90944903 0.2518474,0.6296186 0.5736521,1.4551185 0.3218051,0.8254999 0.6715932,1.7349488 0.3497881,0.8954575 0.6715931,1.7489404 0.3357966,0.8534829 0.6016355,1.5530591 0.265839,0.6855847 0.4197457,1.0633558 0.2518479,0.6436101 0.5316779,0.9094492 0.293822,0.251847 0.559661,0.251847 0.18189,0 0.18189,0.223865 0,0.181889 -0.18189,0.181889 -0.139915,0 -0.573653,0 -0.4337367,-0.01399 -1.161296,-0.01399 -0.6016355,0 -1.1473049,0.01399 -0.5456694,0 -0.6855847,0 -0.1818894,0 -0.1818894,-0.181889 0,-0.223865 0.1818894,-0.223865 0.4477288,0 0.6156271,-0.139915 0.1818898,-0.1539067 0.1818898,-0.349788 0,-0.2098729 -0.069958,-0.3497881 Q 8.0602651,9.4208878 7.976316,9.1690404 7.8923669,8.917193 7.7664432,8.5674049 7.654511,8.2036253 7.5285873,7.8538372 7.4026635,7.4900576 7.3187144,7.2382101 H 3.5410034 Q 3.4570542,7.5180406 3.317139,7.9517778 3.1912152,8.3715235 3.079283,8.7772777 2.981342,9.1830319 2.981342,9.4348793 q 0,0.5176864 0.2518474,0.6855847 0.265839,0.167898 0.7275593,0.167898 0.1818898,0 0.1818898,0.223865 0,0.181889 -0.1818898,0.181889 -0.1399153,0 -0.5316779,0 -0.3777712,-0.01399 -0.9933983,-0.01399 -0.5456693,0 -0.9654147,0.01399 -0.4197457,0 -0.57365212,0 z M 3.7228932,6.7764899 H 7.1368249 L 5.4998167,2.1592872 Z"
       style="font-family:'Zen Antique';-inkscape-font-specification:'Zen Antique';fill:#ffcc00;stroke:#554400;stroke-width:0.1;stroke-miterlimit:4;stroke-dasharray:none"
       id="path8564" />
  </g>
  <metadata
     id="metadata12168">
    <rdf:RDF>
      <cc:Work
         rdf:about="">
        <dc:title>empty</dc:title>
      </cc:Work>
    </rdf:RDF>
  </metadata>
</svg>
